<!DOCTYPE svg PUBLIC "-//W3C//DTD SVG 20010904//EN" "http://www.w3.org/TR/2001/REC-SVG-20010904/DTD/svg10.dtd">
<svg version="1.0" xmlns="http://www.w3.org/2000/svg" width="500px" height="300px" viewBox="0 0 5000 3000" preserveAspectRatio="xMidYMid meet">
<g id="layer101" fill="#101030" stroke="none">
 <path d="M1235 2747 c-11 -13 -40 -45 -64 -72 -24 -28 -74 -81 -110 -120 -92 -97 -97 -105 -82 -114 6 -4 35 -1 64 7 98 27 101 27 95 6 -12 -38 -59 -169 -67 -184 -5 -9 -12 -30 -16 -48 -6 -29 -4 -32 18 -32 22 0 28 9 57 98 17 53 38 112 46 131 14 34 15 34 32 15 10 -10 28 -35 42 -54 54 -78 61 -66 54 103 -8 244 -13 287 -32 286 -10 0 -26 -10 -37 -22z"/>
 <path d="M4389 2357 c-27 -18 -35 -30 -37 -61 -5 -56 19 -86 68 -86 43 0 70 26 70 68 0 21 2 23 16 11 21 -18 38 -54 58 -126 l17 -61 -112 -246 c-102 -225 -113 -245 -137 -248 -21 -2 -27 -8 -27 -28 l0 -25 133 -3 c112 -2 133 0 138 13 8 20 -13 45 -38 45 -12 0 -18 5 -15 13 21 49 111 244 117 250 5 6 29 -70 77 -244 3 -10 -3 -18 -17 -22 -16 -4 -21 -12 -18 -29 3 -22 7 -23 83 -23 79 0 80 0 80 25 0 20 -6 26 -30 30 l-29 5 -96 328 c-101 347 -113 375 -184 418 -41 25 -76 24 -117 -4z"/>
 <path d="M206 2134 c-10 -26 13 -44 54 -44 l38 0 56 -162 c31 -90 114 -334 184 -543 120 -358 128 -380 151 -380 22 0 34 28 197 500 96 275 181 519 190 543 l16 42 53 0 c56 0 82 17 71 45 -5 13 -35 15 -223 13 -218 -3 -218 -3 -221 -25 -3 -22 0 -23 58 -23 45 0 61 -3 58 -13 -2 -7 -23 -72 -48 -145 l-45 -132 -169 2 -169 3 -44 130 c-23 71 -43 133 -43 137 0 4 20 8 44 8 47 0 70 17 60 44 -5 14 -25 16 -134 16 -109 0 -129 -2 -134 -16z m495 -598 l-76 -225 -72 217 c-40 119 -73 220 -73 224 0 5 67 8 149 8 l148 0 -76 -224z"/>
 <path d="M2363 2130 c-33 -17 -48 -34 -70 -78 -27 -55 -28 -63 -32 -243 -3 -182 -3 -185 -25 -185 -14 1 -22 -6 -24 -21 -4 -25 1 -26 106 -42 66 -10 92 -7 92 13 1 6 2 99 3 206 2 157 6 202 19 232 31 70 87 72 128 5 18 -29 20 -51 20 -214 l0 -183 -25 0 c-27 0 -44 -25 -28 -41 5 -5 38 -14 74 -20 35 -5 71 -12 80 -15 9 -2 24 3 33 11 14 14 16 50 16 266 l0 249 31 0 c27 0 30 3 27 28 -3 27 -4 27 -88 30 -75 3 -87 1 -101 -17 l-17 -21 -44 25 c-65 36 -123 41 -175 15z"/>
 <path d="M1385 2121 c-57 -26 -118 -99 -140 -167 -24 -77 -17 -201 14 -264 50 -98 125 -150 216 -150 118 0 207 86 183 177 -16 60 -83 82 -126 43 -32 -30 -29 -75 7 -110 l28 -29 -39 -16 c-34 -13 -42 -14 -68 0 -84 44 -125 209 -84 345 20 68 78 130 121 130 37 0 95 -40 123 -85 15 -24 29 -35 46 -35 33 0 32 30 -5 84 -59 86 -182 120 -276 77z"/>
 <path d="M1895 2121 c-57 -26 -118 -99 -140 -167 -24 -77 -17 -201 14 -264 50 -98 125 -150 216 -150 118 0 207 86 183 177 -16 60 -83 82 -126 43 -32 -30 -29 -75 7 -110 l28 -29 -39 -16 c-34 -13 -42 -14 -68 0 -84 44 -125 209 -84 345 20 68 78 130 121 130 37 0 95 -40 123 -85 15 -24 29 -35 46 -35 33 0 32 30 -5 84 -59 86 -182 120 -276 77z"/>
 <path d="M4005 2121 c-57 -26 -118 -99 -140 -167 -24 -77 -17 -201 14 -264 50 -98 125 -150 216 -150 118 0 207 86 183 177 -16 60 -83 82 -126 43 -32 -30 -29 -75 7 -110 l28 -29 -39 -16 c-34 -13 -42 -14 -68 0 -84 44 -125 209 -84 345 20 68 78 130 121 130 37 0 95 -40 123 -85 15 -24 29 -35 46 -35 33 0 32 30 -5 84 -59 86 -182 120 -276 77z"/>
 <path d="M2852 2121 c-23 -14 -10 -46 21 -49 l27 -3 0 -220 0 -219 -29 0 c-30 0 -50 -25 -33 -42 14 -14 162 -50 178 -44 8 3 14 19 14 36 0 33 11 38 31 14 20 -25 85 -54 119 -54 65 0 111 82 79 141 -28 53 -109 42 -131 -17 -15 -41 -21 -42 -46 -6 -35 50 -42 91 -42 253 l0 159 30 0 c34 0 49 22 30 45 -10 12 -37 15 -124 15 -61 0 -117 -4 -124 -9z"/>
 <path d="M3374 2111 c-74 -45 -83 -159 -17 -232 40 -45 122 -79 188 -79 l45 0 0 -86 0 -85 -37 -15 c-37 -16 -97 -12 -108 6 -3 5 3 18 15 30 27 27 27 83 0 110 -25 25 -81 27 -102 3 -58 -65 -5 -181 96 -213 49 -16 145 -8 183 15 35 20 70 69 84 116 5 19 12 111 16 206 l6 172 26 3 c20 2 26 9 26 28 0 25 -1 25 -90 25 l-90 0 -3 -27 c-4 -33 -13 -35 -38 -7 -46 51 -142 66 -200 30z m182 -85 c32 -32 34 -38 34 -100 l0 -66 -50 0 c-58 0 -84 22 -101 83 -13 48 -1 88 32 104 36 19 48 16 85 -21z"/>
 <path d="M597 958 c-9 -24 -25 -71 -37 -106 -45 -136 -41 -131 -160 -206 -72 -45 -112 -77 -115 -90 -43 -216 -51 -276 -37 -276 5 0 35 11 67 24 52 21 62 22 80 10 12 -8 24 -11 27 -8 4 3 21 -22 40 -55 21 -38 39 -61 51 -61 9 0 17 7 17 15 0 8 25 66 55 130 l54 114 -20 63 c-10 35 -29 93 -41 131 -17 53 -19 72 -10 90 14 29 63 166 69 194 6 27 -4 73 -16 73 -4 0 -15 -19 -24 -42z"/>
 </g>
<g id="layer102" fill="#661414" stroke="none">
 <path d="M1218 2727 c-20 -23 -84 -94 -142 -157 -58 -62 -106 -118 -106 -122 0 -13 39 -9 102 8 32 9 61 14 65 11 5 -6 -3 -33 -27 -92 -16 -37 -60 -168 -60 -177 0 -4 9 -8 20 -8 24 0 38 27 80 158 17 56 36 102 41 102 5 0 23 -19 39 -42 48 -67 60 -79 70 -73 9 6 6 203 -6 363 -7 87 -20 92 -76 29z"/>
 <path d="M597 958 c-9 -24 -30 -87 -48 -140 l-32 -97 -105 -68 c-58 -38 -109 -70 -113 -73 -8 -6 -59 -248 -59 -281 0 -24 4 -24 75 5 52 21 62 22 80 10 12 -8 24 -11 27 -8 4 3 21 -22 40 -55 21 -38 39 -61 51 -61 9 0 17 7 17 15 0 8 25 66 55 130 l54 114 -18 58 c-58 179 -64 206 -55 222 27 45 77 219 70 244 -9 38 -21 34 -39 -15z"/>
 </g>

</svg>